<svg version="1.1" id="Layer_1" xmlns="http://www.w3.org/2000/svg" xmlns:xlink="http://www.w3.org/1999/xlink" x="0px" y="0px"
	 width="100%" viewBox="0 0 512 512" enable-background="new 0 0 512 512" xml:space="preserve">
<path fill="#1D1B3C" opacity="1.000000" stroke="none" 
	d="
M51.000000,513.000000 
	C34.345253,513.000000 17.690508,513.000000 1.042299,513.000000 
	C1.048834,342.333313 1.048834,171.666656 1.048834,1.000000 
	C17.419340,1.000000 33.741013,1.000000 50.531342,1.468657 
	C51.000000,10.768287 51.000000,19.599258 51.000000,28.430231 
	C51.000000,37.261219 51.000000,46.092209 51.000000,54.923199 
	C51.000000,63.587566 50.926041,72.252739 51.020626,80.916069 
	C51.116856,89.729973 51.527046,98.542068 51.527046,107.354950 
	C51.527046,116.167862 51.115444,124.979980 51.020824,133.793915 
	C50.926029,142.623886 51.000000,151.455658 51.000000,160.286652 
	C51.000000,168.951019 51.215660,177.622284 50.939144,186.277817 
	C50.664474,194.875580 49.460266,203.457687 49.463772,212.046341 
	C49.467304,220.708893 50.454029,229.371033 50.881744,238.360107 
	C45.730900,246.226120 38.169868,242.100510 30.822594,242.927765 
	C31.249287,246.360550 30.497929,250.870850 32.403549,252.975906 
	C34.787430,255.609253 34.330399,256.883301 32.854961,259.045959 
	C32.894497,259.067017 32.831745,259.029358 32.494228,259.148132 
	C27.252508,262.492493 29.986889,267.081970 29.554577,271.057129 
	C30.187685,271.235596 30.349848,271.325958 30.507145,271.318176 
	C31.329966,271.277374 32.159115,271.264069 32.972424,271.146729 
	C42.453594,269.778961 51.155239,270.477661 56.749371,279.824005 
	C57.239521,280.642944 58.083382,281.407379 58.943729,281.822113 
	C64.704979,284.599487 63.538956,288.963196 61.857964,293.585541 
	C60.239086,298.037109 56.461441,299.562164 52.494640,300.999268 
	C51.891865,301.217651 51.550762,302.158295 51.066505,303.247803 
	C51.029591,373.487152 51.014793,443.243561 51.000000,513.000000 
z"/>
<path fill="#0C3853" opacity="1.000000" stroke="none" 
	d="
M464.000000,1.000000 
	C480.321533,1.000000 496.643066,1.000000 512.958679,1.000002 
	C512.952759,171.666672 512.952759,342.333344 512.952759,513.000000 
	C498.249451,513.000000 483.593384,513.000000 468.406311,512.616333 
	C467.792877,507.686676 467.646881,503.140747 467.643280,498.594696 
	C467.638092,492.064240 467.759705,485.533783 467.784637,479.003174 
	C467.811340,472.007538 467.790161,465.011658 467.787201,458.015900 
	C467.784485,451.644989 467.824402,445.273651 467.760620,438.903320 
	C467.695374,432.387726 467.404083,425.872650 467.432831,419.358307 
	C467.473846,410.062439 467.847656,400.767212 467.835693,391.472076 
	C467.823730,382.182953 467.366089,372.894165 467.372620,363.605408 
	C467.379150,354.312225 467.876221,345.019135 467.867126,335.726257 
	C467.858002,326.437195 467.441071,317.149200 467.288666,307.859375 
	C467.095886,296.108276 466.989838,284.355804 467.029480,272.244080 
	C472.185242,271.442383 477.157928,271.000519 482.968658,270.484161 
	C482.281921,266.118011 481.617371,261.892853 480.816864,256.803284 
	C485.269470,253.833282 484.670441,248.507034 483.657410,242.265427 
	C471.505798,246.046753 462.475311,241.553375 455.357544,232.104599 
	C454.966553,231.585571 454.145233,231.327667 453.893219,230.778793 
	C453.126282,229.108490 451.890411,227.314697 451.994446,225.640930 
	C452.490570,217.661499 457.676056,213.881805 464.928650,211.726074 
	C464.968567,174.608932 464.989685,137.972900 464.998840,101.336868 
	C465.006470,70.682983 465.025970,40.029049 464.956482,9.375322 
	C464.950165,6.582840 464.333344,3.791742 464.000000,1.000000 
z"/>
<path fill="#152A48" opacity="1.000000" stroke="none" 
	d="
M222.000000,1.000000 
	C250.020889,1.000000 278.041779,1.000000 306.531342,1.468657 
	C307.000000,54.464661 306.983978,106.992027 307.047760,159.519287 
	C307.050903,162.117569 307.749084,164.714981 308.016907,167.620972 
	C291.437958,188.429718 274.965698,208.930313 257.874512,230.201218 
	C245.435242,214.168777 233.131409,198.310928 220.981583,182.081421 
	C221.716644,179.812592 222.754135,177.926254 222.799255,176.016464 
	C222.987152,168.062210 222.966156,160.099640 222.853973,152.142471 
	C222.684494,140.119629 222.267456,128.099792 222.153824,116.076790 
	C222.027939,102.757492 222.027939,89.435173 222.153809,76.115875 
	C222.267441,64.092873 222.843826,52.071663 222.815781,40.050598 
	C222.785416,27.033169 222.291656,14.016820 222.000000,1.000000 
z"/>
<path fill="#152A48" opacity="1.000000" stroke="none" 
	d="
M307.000000,513.000000 
	C280.312439,513.000000 253.624878,513.000000 226.452179,512.602661 
	C225.851822,507.338043 225.690109,502.471375 225.632828,497.603485 
	C225.556351,491.102875 225.557617,484.601349 225.531616,478.100220 
	C225.504974,471.440125 225.466614,464.779999 225.468628,458.119904 
	C225.470657,451.459808 225.519760,444.799713 225.541794,438.139618 
	C225.564362,431.320526 225.591431,424.501465 225.593796,417.682373 
	C225.596054,411.181244 225.559250,404.680115 225.557495,398.178986 
	C225.555664,391.359894 225.581268,384.540833 225.583466,377.721741 
	C225.585571,371.220612 225.569641,364.719482 225.567795,358.218353 
	C225.565872,351.399323 225.945099,344.551910 225.430466,337.772125 
	C225.131485,333.833344 227.583832,329.358948 223.856110,325.576721 
	C234.679596,311.545105 245.393707,297.840546 256.221710,283.990356 
	C273.789124,305.997406 290.912415,327.448120 308.007141,349.326294 
	C307.652405,352.880585 307.045471,356.007050 307.041870,359.134277 
	C306.982880,410.422791 307.000000,461.711395 307.000000,513.000000 
z"/>
<path fill="#122F4C" opacity="1.000000" stroke="none" 
	d="
M308.123627,167.312805 
	C307.749084,164.714981 307.050903,162.117569 307.047760,159.519287 
	C306.983978,106.992027 307.000000,54.464661 307.000000,1.468657 
	C333.687561,1.000000 360.375122,1.000000 387.531342,1.468657 
	C388.000000,33.313332 387.976379,64.689400 388.043213,96.065269 
	C388.048798,98.681007 388.664795,101.295441 388.721313,104.130630 
	C385.359741,106.038414 382.274078,107.726044 379.188446,109.413681 
	C379.290863,109.655029 379.393280,109.896385 379.495697,110.137741 
	C388.098511,107.899109 396.701324,105.660469 405.304138,103.421837 
	C400.246063,108.651672 394.509521,112.382469 389.607086,116.998970 
	C368.934357,136.465866 348.520203,156.207199 327.983002,175.818314 
	C325.382385,178.301651 322.613617,180.608902 319.554871,182.861115 
	C318.790894,180.907852 318.238342,179.108902 318.030396,177.270950 
	C317.557526,173.091187 317.253998,168.892288 316.989380,164.389252 
	C327.063721,153.239960 337.030304,142.402573 346.996887,131.565186 
	C346.709320,131.214645 346.421722,130.864105 346.134125,130.513580 
	C344.032867,132.217590 341.771271,133.759506 339.856934,135.652557 
	C329.232574,146.158844 318.692535,156.750427 308.123627,167.312805 
z"/>
<path fill="#182645" opacity="1.000000" stroke="none" 
	d="
M223.746735,325.903778 
	C227.583832,329.358948 225.131485,333.833344 225.430466,337.772125 
	C225.945099,344.551910 225.565872,351.399323 225.567795,358.218353 
	C225.569641,364.719482 225.585571,371.220612 225.583466,377.721741 
	C225.581268,384.540833 225.555664,391.359894 225.557495,398.178986 
	C225.559250,404.680115 225.596054,411.181244 225.593796,417.682373 
	C225.591431,424.501465 225.564362,431.320526 225.541794,438.139618 
	C225.519760,444.799713 225.470657,451.459808 225.468628,458.119904 
	C225.466614,464.779999 225.504974,471.440125 225.531616,478.100220 
	C225.557617,484.601349 225.556351,491.102875 225.632828,497.603485 
	C225.690109,502.471375 225.851822,507.338043 225.983521,512.602661 
	C203.312439,513.000000 180.624878,513.000000 157.397888,512.588013 
	C156.572327,509.885284 156.045349,507.595306 156.037827,505.303589 
	C155.972366,485.356567 156.000092,465.409271 155.999969,445.462036 
	C155.999878,430.002930 155.989883,414.543823 156.008438,399.084717 
	C156.011673,396.383759 156.053665,393.762756 152.019531,395.046143 
	C151.990662,395.011505 151.921448,394.953735 152.117126,394.664978 
	C153.827621,392.956543 156.669312,391.500397 156.631439,390.123474 
	C156.450943,383.561890 155.487793,377.021881 154.957535,370.196472 
	C174.929611,350.479431 194.451614,330.725006 214.691559,311.735809 
	C224.575653,302.462494 235.797150,294.614685 246.634674,286.424988 
	C247.011002,286.924957 247.165970,287.121582 247.208038,287.638245 
	C221.556671,322.546936 194.084671,355.486481 163.668030,386.058838 
	C165.409042,385.573486 167.096970,384.953217 168.337753,383.836243 
	C176.131226,376.820648 184.286194,370.127441 191.445450,362.504791 
	C202.579987,350.649567 213.015152,338.137451 223.746735,325.903778 
z"/>
<path fill="#182544" opacity="1.000000" stroke="none" 
	d="
M221.531342,1.000000 
	C222.291656,14.016820 222.785416,27.033169 222.815781,40.050598 
	C222.843826,52.071663 222.267441,64.092873 222.153809,76.115875 
	C222.027939,89.435173 222.027939,102.757492 222.153824,116.076790 
	C222.267456,128.099792 222.684494,140.119629 222.853973,152.142471 
	C222.966156,160.099640 222.987152,168.062210 222.799255,176.016464 
	C222.754135,177.926254 221.716644,179.812592 220.685120,181.898071 
	C217.050751,178.266418 214.121078,174.195114 210.637802,170.671021 
	C197.317078,157.194199 183.837967,143.873459 170.341553,130.571976 
	C169.444992,129.688370 167.911545,129.450958 166.674332,128.912979 
	C166.912994,128.843369 167.151657,128.773758 167.390335,128.704132 
	C184.546021,148.361359 201.701721,168.018570 218.502106,187.894547 
	C217.377426,192.573456 216.608063,197.033600 215.529602,201.333282 
	C193.701370,180.027145 172.182236,158.881485 150.846588,137.305283 
	C151.353378,134.432190 151.954910,131.990036 151.958466,129.546997 
	C152.016953,89.483696 152.019897,49.420254 151.956985,9.356965 
	C151.952606,6.570817 151.333328,3.785634 151.000000,1.000001 
	C174.354233,1.000000 197.708450,1.000000 221.531342,1.000000 
z"/>
<path fill="#12304C" opacity="1.000000" stroke="none" 
	d="
M307.468658,513.000000 
	C307.000000,461.711395 306.982880,410.422791 307.041870,359.134277 
	C307.045471,356.007050 307.652405,352.880585 308.313324,349.471252 
	C320.291962,362.145569 332.324707,374.682495 346.675842,384.745178 
	C346.092743,383.078949 345.003326,381.929321 343.929871,380.765015 
	C334.829712,370.894745 325.732452,361.021729 316.938782,350.873016 
	C317.875763,344.264893 318.508240,337.933289 319.450256,331.753296 
	C331.629578,343.728119 343.236359,355.830994 355.435181,367.304382 
	C371.003510,381.946960 387.049957,396.081177 402.692719,410.255463 
	C394.476868,408.045105 385.530853,405.638336 375.256073,402.874054 
	C378.946014,405.119324 381.470367,406.655334 383.914093,408.589569 
	C383.555634,411.442047 383.040100,413.895935 383.035980,416.350647 
	C382.981903,448.567017 383.000000,480.783539 383.000000,513.000000 
	C357.979095,513.000000 332.958221,513.000000 307.468658,513.000000 
z"/>
<path fill="#1C1F3F" opacity="1.000000" stroke="none" 
	d="
M51.009995,238.033356 
	C50.454029,229.371033 49.467304,220.708893 49.463772,212.046341 
	C49.460266,203.457687 50.664474,194.875580 50.939144,186.277817 
	C51.215660,177.622284 51.000000,168.951019 51.000000,160.286652 
	C51.000000,151.455658 50.926029,142.623886 51.020824,133.793915 
	C51.115444,124.979980 51.527046,116.167862 51.527046,107.354950 
	C51.527046,98.542068 51.116856,89.729973 51.020626,80.916069 
	C50.926041,72.252739 51.000000,63.587566 51.000000,54.923199 
	C51.000000,46.092209 51.000000,37.261219 51.000000,28.430231 
	C51.000000,19.599258 51.000000,10.768287 51.000000,1.468657 
	C66.354225,1.000000 81.708458,1.000000 97.531342,1.468657 
	C97.978760,32.022194 97.957527,62.107075 97.542908,92.168091 
	C94.968964,91.709953 92.788406,91.275673 89.923325,90.705070 
	C99.952316,99.167709 109.206192,106.976303 118.132751,115.081078 
	C117.537285,117.152725 117.050247,118.926575 117.037201,120.703918 
	C116.962593,130.867615 117.105713,141.034149 116.909348,151.194580 
	C116.871422,153.156952 115.654991,155.096512 114.709023,156.832825 
	C111.721901,151.692123 109.149345,146.680817 106.268181,141.853714 
	C96.661743,125.759171 83.759674,113.667404 65.154427,108.739967 
	C62.934986,108.152153 60.592979,108.027122 58.307785,107.687576 
	C77.600266,115.662842 91.537025,128.908691 100.868263,146.934921 
	C110.707726,165.942932 109.667900,187.880188 117.209587,208.211807 
	C114.338455,207.993958 112.194824,208.014938 110.122757,207.640167 
	C103.513313,206.444733 96.977859,204.675323 90.324013,203.936569 
	C83.660744,203.196762 76.889481,203.429611 70.853302,203.255905 
	C65.009995,206.585648 59.252415,209.866547 54.115742,212.793625 
	C55.709156,213.598755 58.425789,214.548676 60.637009,216.182587 
	C64.458473,219.006378 65.796303,225.092453 63.377937,227.246414 
	C59.293167,230.884598 55.136452,234.441986 51.009995,238.033356 
z"/>
<path fill="#1C1F3F" opacity="1.000000" stroke="none" 
	d="
M51.468658,513.000000 
	C51.014793,443.243561 51.029591,373.487152 51.469414,303.322815 
	C59.299770,302.657684 64.180359,307.096680 67.575752,310.996063 
	C75.346634,310.694122 81.926140,310.322327 88.509979,310.213928 
	C95.707626,310.095459 102.768051,309.877930 109.242706,305.920624 
	C110.701927,305.028748 113.171249,305.789490 114.592377,305.789490 
	C111.987083,318.132507 109.287613,329.944153 107.023781,341.838715 
	C101.280365,372.015472 85.518990,394.117676 56.331791,405.886200 
	C58.252785,406.043365 60.217041,406.190643 62.015030,405.712585 
	C77.746536,401.529694 90.496605,392.834564 99.638741,379.394806 
	C105.101463,371.364075 109.720734,362.759644 114.902618,354.834564 
	C115.390991,357.351807 115.939987,359.445312 115.959297,361.543732 
	C116.051849,371.602417 115.931404,381.663300 116.054878,391.721313 
	C116.082474,393.969849 116.787094,396.210114 117.021713,398.734192 
	C107.409210,406.953766 97.955032,414.893311 87.443886,423.720490 
	C92.434380,422.347565 96.217651,421.306763 100.000793,420.658844 
	C100.194595,433.505890 100.563545,445.960358 100.541016,458.414154 
	C100.508095,476.609680 100.194153,494.804749 100.000000,513.000000 
	C83.979103,513.000000 67.958214,513.000000 51.468658,513.000000 
z"/>
<path fill="#0E3551" opacity="1.000000" stroke="none" 
	d="
M466.846375,272.603912 
	C466.989838,284.355804 467.095886,296.108276 467.288666,307.859375 
	C467.441071,317.149200 467.858002,326.437195 467.867126,335.726257 
	C467.876221,345.019135 467.379150,354.312225 467.372620,363.605408 
	C467.366089,372.894165 467.823730,382.182953 467.835693,391.472076 
	C467.847656,400.767212 467.473846,410.062439 467.432831,419.358307 
	C467.404083,425.872650 467.695374,432.387726 467.760620,438.903320 
	C467.824402,445.273651 467.784485,451.644989 467.787201,458.015900 
	C467.790161,465.011658 467.811340,472.007538 467.784637,479.003174 
	C467.759705,485.533783 467.638092,492.064240 467.643280,498.594696 
	C467.646881,503.140747 467.792877,507.686676 467.937622,512.616333 
	C455.312439,513.000000 442.624878,513.000000 429.468658,512.531372 
	C429.000000,511.064819 429.000000,510.066956 429.000000,509.069092 
	C429.000061,474.476501 428.986420,439.883911 429.025238,405.291382 
	C429.028442,402.414276 428.287689,399.050049 432.631714,397.930328 
	C444.082458,404.274567 451.105316,406.546326 455.678070,405.238556 
	C455.026245,404.857178 454.504944,404.472931 453.925385,404.224487 
	C430.390167,394.134247 415.159393,376.541718 408.515381,352.038910 
	C404.446442,337.032990 401.893982,321.615875 398.718262,306.655670 
	C413.735321,308.338226 429.299927,310.082153 442.737701,311.587769 
	C449.937927,307.589722 455.607330,304.441711 461.185455,301.344360 
	C459.854462,300.721771 457.621552,299.865021 455.577759,298.681610 
	C451.501160,296.321045 448.845703,288.719818 451.264709,286.520782 
	C456.417450,281.836578 461.647827,277.237762 466.846375,272.603912 
z"/>
<path fill="#0F3651" opacity="1.000000" stroke="none" 
	d="
M463.531342,1.000000 
	C464.333344,3.791742 464.950165,6.582840 464.956482,9.375322 
	C465.025970,40.029049 465.006470,70.682983 464.998840,101.336868 
	C464.989685,137.972900 464.968567,174.608932 464.529114,211.689636 
	C456.900055,211.252045 451.057098,207.962112 447.689606,203.308807 
	C438.734619,203.503418 430.778839,203.095551 422.978058,204.010025 
	C415.257050,204.915176 407.692444,207.154587 400.269897,208.763107 
	C403.354279,194.173828 406.112000,180.545914 409.131042,166.976135 
	C414.689606,141.991730 428.628143,123.321892 451.506104,111.555099 
	C453.753265,110.399307 456.174500,109.581932 458.514923,108.607483 
	C458.275482,107.994270 458.036041,107.381065 457.796570,106.767860 
	C451.197235,109.162819 444.597870,111.557777 437.995453,113.551582 
	C437.967255,110.043694 437.975891,106.936256 437.910675,103.830368 
	C437.715515,94.531502 437.304688,85.232819 437.325439,75.934853 
	C437.352020,64.024414 437.931793,52.113770 437.878448,40.204983 
	C437.819824,27.135605 437.312042,14.068241 437.000000,1.000000 
	C445.687561,1.000000 454.375122,1.000000 463.531342,1.000000 
z"/>
<path fill="#1A2241" opacity="1.000000" stroke="none" 
	d="
M100.468658,513.000000 
	C100.194153,494.804749 100.508095,476.609680 100.541016,458.414154 
	C100.563545,445.960358 100.194595,433.505890 100.348267,420.492676 
	C112.499077,415.795593 124.146706,411.319763 134.529388,403.837952 
	C126.464760,405.969147 118.400131,408.100342 110.335503,410.231506 
	C110.169006,409.798767 110.002510,409.366028 109.836014,408.933258 
	C112.007240,407.329529 114.298897,405.864410 116.330032,404.099457 
	C129.186493,392.927948 141.985275,381.690125 154.803085,370.474182 
	C155.487793,377.021881 156.450943,383.561890 156.631439,390.123474 
	C156.669312,391.500397 153.827621,392.956543 152.024811,394.727661 
	C151.736816,395.079132 151.758484,395.391541 151.758484,395.391541 
	C151.758484,395.391541 152.048416,395.080750 152.048416,395.080750 
	C156.053665,393.762756 156.011673,396.383759 156.008438,399.084717 
	C155.989883,414.543823 155.999878,430.002930 155.999969,445.462036 
	C156.000092,465.409271 155.972366,485.356567 156.037827,505.303589 
	C156.045349,507.595306 156.572327,509.885284 156.929230,512.588013 
	C138.312439,513.000000 119.624878,513.000000 100.468658,513.000000 
z"/>
<path fill="#0F3450" opacity="1.000000" stroke="none" 
	d="
M436.531342,1.000000 
	C437.312042,14.068241 437.819824,27.135605 437.878448,40.204983 
	C437.931793,52.113770 437.352020,64.024414 437.325439,75.934853 
	C437.304688,85.232819 437.715515,94.531502 437.910675,103.830368 
	C437.975891,106.936256 437.967255,110.043694 437.777527,113.820076 
	C421.567200,123.320740 411.980011,137.639893 403.987823,153.406052 
	C402.139709,157.051804 399.573303,160.333420 397.155853,163.345840 
	C396.649506,160.645615 396.060394,158.384125 396.043671,156.118393 
	C395.947083,143.060104 395.985870,130.000839 396.112305,116.634872 
	C406.090210,108.043053 415.934601,99.758263 425.778992,91.473465 
	C424.010193,91.141090 422.454956,91.384071 421.008636,91.920723 
	C410.325958,95.884407 399.664978,99.906654 388.997192,103.910477 
	C388.664795,101.295441 388.048798,98.681007 388.043213,96.065269 
	C387.976379,64.689400 388.000000,33.313332 388.000000,1.468657 
	C404.020905,1.000000 420.041779,1.000000 436.531342,1.000000 
z"/>
<path fill="#103450" opacity="1.000000" stroke="none" 
	d="
M432.295715,397.866516 
	C428.287689,399.050049 429.028442,402.414276 429.025238,405.291382 
	C428.986420,439.883911 429.000061,474.476501 429.000000,509.069092 
	C429.000000,510.066956 429.000000,511.064819 429.000000,512.531372 
	C413.979095,513.000000 398.958221,513.000000 383.468658,513.000000 
	C383.000000,480.783539 382.981903,448.567017 383.035980,416.350647 
	C383.040100,413.895935 383.555634,411.442047 384.257874,408.639465 
	C397.122131,414.615967 410.012207,419.700958 424.180603,423.331451 
	C411.651123,412.209686 399.794891,401.685547 387.953735,390.682648 
	C388.312714,380.847931 388.656555,371.491974 389.344788,362.076813 
	C389.667999,361.293274 389.878265,360.454926 389.587036,359.863586 
	C388.008057,356.657410 385.974915,353.629272 384.793457,350.293579 
	C384.256104,348.776428 385.319489,346.692322 385.656769,344.865387 
	C387.603424,345.329651 390.262482,345.150665 391.367706,346.374664 
	C395.206787,350.626343 399.315125,354.956604 401.859314,359.995087 
	C409.356537,374.842468 418.449432,388.210968 432.295715,397.866516 
z"/>
<path fill="#1A2141" opacity="1.000000" stroke="none" 
	d="
M97.936295,92.191956 
	C97.957527,62.107075 97.978760,32.022194 98.000000,1.468657 
	C115.354225,1.000000 132.708450,1.000000 150.531342,1.000001 
	C151.333328,3.785634 151.952606,6.570817 151.956985,9.356965 
	C152.019897,49.420254 152.016953,89.483696 151.958466,129.546997 
	C151.954910,131.990036 151.353378,134.432190 150.546478,137.125183 
	C137.980637,126.672958 125.898392,115.970314 113.147690,104.675545 
	C121.696777,104.420517 128.813919,108.822502 137.876251,110.084259 
	C136.185349,108.840607 135.721146,108.346672 135.150146,108.101639 
	C122.752693,102.781708 110.343346,97.489502 97.936295,92.191956 
M140.857956,111.487411 
	C141.021790,111.925354 141.185623,112.363297 141.349442,112.801239 
	C141.615524,112.670364 141.881607,112.539490 142.147690,112.408607 
	C141.874512,112.078781 141.601334,111.748955 140.857956,111.487411 
z"/>
<path fill="#F9F9FA" opacity="1.000000" stroke="none" 
	d="
M97.542908,92.168091 
	C110.343346,97.489502 122.752693,102.781708 135.150146,108.101639 
	C135.721146,108.346672 136.185349,108.840607 137.876251,110.084259 
	C128.813919,108.822502 121.696777,104.420517 113.147690,104.675545 
	C125.898392,115.970314 137.980637,126.672958 150.362991,137.555695 
	C172.182236,158.881485 193.701370,180.027145 215.690002,201.607361 
	C227.034134,210.767715 237.908783,219.493546 248.901596,228.464508 
	C249.257477,228.311661 249.495178,227.913681 249.566040,227.212097 
	C239.218597,213.830933 229.038010,200.753372 218.857422,187.675797 
	C201.701721,168.018570 184.546021,148.361359 167.390335,128.704132 
	C167.151657,128.773758 166.912994,128.843369 166.674332,128.912979 
	C167.911545,129.450958 169.444992,129.688370 170.341553,130.571976 
	C183.837967,143.873459 197.317078,157.194199 210.637802,170.671021 
	C214.121078,174.195114 217.050751,178.266418 220.531128,182.269745 
	C233.131409,198.310928 245.435242,214.168777 257.874512,230.201218 
	C274.965698,208.930313 291.437958,188.429718 308.016907,167.620972 
	C318.692535,156.750427 329.232574,146.158844 339.856934,135.652557 
	C341.771271,133.759506 344.032867,132.217590 346.134125,130.513580 
	C346.421722,130.864105 346.709320,131.214645 346.996887,131.565186 
	C337.030304,142.402573 327.063721,153.239960 316.682861,164.545013 
	C298.400177,185.544846 281.114258,206.529419 265.911407,229.186157 
	C268.467590,228.249969 270.690826,227.063675 272.566589,225.468811 
	C285.232697,214.699524 297.891388,203.919312 310.398499,192.966766 
	C313.842316,189.951004 316.762390,186.337158 319.922791,182.997742 
	C322.613617,180.608902 325.382385,178.301651 327.983002,175.818314 
	C348.520203,156.207199 368.934357,136.465866 389.607086,116.998970 
	C394.509521,112.382469 400.246063,108.651672 405.304138,103.421837 
	C396.701324,105.660469 388.098511,107.899109 379.495697,110.137741 
	C379.393280,109.896385 379.290863,109.655029 379.188446,109.413681 
	C382.274078,107.726044 385.359741,106.038414 388.721313,104.130630 
	C399.664978,99.906654 410.325958,95.884407 421.008636,91.920723 
	C422.454956,91.384071 424.010193,91.141090 425.778992,91.473465 
	C415.934601,99.758263 406.090210,108.043053 395.794861,116.748688 
	C379.741852,131.714371 365.069183,147.044907 354.621277,165.887817 
	C349.899292,174.403976 346.822418,183.361343 346.497803,193.286041 
	C345.837463,213.473114 355.078644,226.544083 373.530121,230.619507 
	C377.319336,231.456421 381.212219,231.823959 386.269684,232.591949 
	C374.185577,236.335388 363.179169,235.059677 351.828979,233.136444 
	C340.542755,230.610428 330.361603,226.443375 321.140594,218.990906 
	C312.600342,226.142807 304.356232,233.046722 295.299225,240.631393 
	C298.847504,241.062759 300.824249,241.474304 302.808960,241.517319 
	C318.910522,241.866394 335.013611,242.146408 351.562561,242.510864 
	C361.492310,240.786514 370.962372,238.920441 380.474060,237.298309 
	C381.849915,237.063690 383.471405,237.878235 384.900299,238.416733 
	C389.926605,240.311020 394.918457,242.296661 400.244934,244.478210 
	C416.280670,247.241852 430.237579,243.802444 442.290161,232.346222 
	C429.626709,226.322021 416.927002,221.158707 404.127808,216.255096 
	C402.737976,215.722626 400.773132,216.691147 399.074463,216.584259 
	C397.901276,212.969116 396.646637,213.888733 394.715546,215.786758 
	C391.698883,218.751694 388.311218,221.339142 384.844360,223.884247 
	C384.435364,223.567017 384.262726,223.452057 384.260559,223.034515 
	C386.598816,219.517792 388.766602,216.303635 391.444275,212.333511 
	C382.222931,210.784515 374.266174,209.447937 366.309387,208.111374 
	C366.370758,207.742844 366.432098,207.374329 366.493439,207.005798 
	C375.244873,207.005798 383.996307,207.005798 393.778687,207.005798 
	C394.150726,200.379639 394.892883,193.960571 394.636353,187.581650 
	C394.559540,185.671356 391.694031,183.873199 390.106140,182.023651 
	C388.551361,183.736923 386.107025,185.236526 385.633148,187.209427 
	C384.737946,190.936554 384.975891,194.935806 384.724762,199.125168 
	C380.114594,192.897675 384.364105,182.154327 373.855591,179.921158 
	C375.713806,177.234207 377.665680,175.076035 378.784668,172.549072 
	C379.474701,170.990677 379.535889,168.454865 378.680786,167.133713 
	C378.003998,166.088074 375.498596,165.901123 373.812866,165.922974 
	C372.054108,165.945755 370.304504,166.675018 367.513336,167.344162 
	C375.225494,159.574707 382.171295,152.970139 392.975281,151.910629 
	C390.940521,154.805817 388.586456,156.997162 387.745117,159.665497 
	C386.832672,162.559357 387.329163,165.897476 387.211243,169.041855 
	C390.083954,167.943359 392.988556,166.918228 395.805695,165.692139 
	C396.467865,165.403946 396.834717,164.437180 397.337463,163.782593 
	C399.573303,160.333420 402.139709,157.051804 403.987823,153.406052 
	C411.980011,137.639893 421.567200,123.320740 437.780579,114.221230 
	C444.597870,111.557777 451.197235,109.162819 457.796570,106.767860 
	C458.036041,107.381065 458.275482,107.994270 458.514923,108.607483 
	C456.174500,109.581932 453.753265,110.399307 451.506104,111.555099 
	C428.628143,123.321892 414.689606,141.991730 409.131042,166.976135 
	C406.112000,180.545914 403.354279,194.173828 400.269897,208.763107 
	C407.692444,207.154587 415.257050,204.915176 422.978058,204.010025 
	C430.778839,203.095551 438.734619,203.503418 447.689606,203.308807 
	C451.057098,207.962112 456.900055,211.252045 464.505127,212.170746 
	C457.676056,213.881805 452.490570,217.661499 451.994446,225.640930 
	C451.890411,227.314697 453.126282,229.108490 453.893219,230.778793 
	C454.145233,231.327667 454.966553,231.585571 455.357544,232.104599 
	C462.475311,241.553375 471.505798,246.046753 483.657410,242.265427 
	C484.670441,248.507034 485.269470,253.833282 480.816864,256.803284 
	C481.617371,261.892853 482.281921,266.118011 482.968658,270.484161 
	C477.157928,271.000519 472.185242,271.442383 467.029480,272.244080 
	C461.647827,277.237762 456.417450,281.836578 451.264709,286.520782 
	C448.845703,288.719818 451.501160,296.321045 455.577759,298.681610 
	C457.621552,299.865021 459.854462,300.721771 461.185455,301.344360 
	C455.607330,304.441711 449.937927,307.589722 442.737701,311.587769 
	C429.299927,310.082153 413.735321,308.338226 398.718262,306.655670 
	C401.893982,321.615875 404.446442,337.032990 408.515381,352.038910 
	C415.159393,376.541718 430.390167,394.134247 453.925385,404.224487 
	C454.504944,404.472931 455.026245,404.857178 455.678070,405.238556 
	C451.105316,406.546326 444.082458,404.274567 432.631714,397.930328 
	C418.449432,388.210968 409.356537,374.842468 401.859314,359.995087 
	C399.315125,354.956604 395.206787,350.626343 391.367706,346.374664 
	C390.262482,345.150665 387.603424,345.329651 385.656769,344.865387 
	C385.319489,346.692322 384.256104,348.776428 384.793457,350.293579 
	C385.974915,353.629272 388.008057,356.657410 389.587036,359.863586 
	C389.878265,360.454926 389.667999,361.293274 388.990417,361.942383 
	C379.751678,359.160126 372.762512,354.216736 366.127136,346.578857 
	C368.479340,347.263702 369.703186,347.965057 370.874390,347.886078 
	C373.029297,347.740753 375.791504,347.779205 377.073975,346.505768 
	C377.985168,345.600891 377.389374,342.427002 376.561951,340.698700 
	C375.323395,338.111572 373.290619,335.904602 371.608490,333.553894 
	C382.671936,332.366333 377.874451,321.298462 382.649963,316.245514 
	C383.066315,320.033173 382.988495,323.749054 384.033844,327.116211 
	C384.626526,329.025330 387.060760,330.362793 388.665588,331.957703 
	C390.083344,330.312103 392.672180,328.694641 392.712555,327.015900 
	C392.872284,320.375671 392.233582,313.716217 391.864532,306.550476 
	C382.365417,306.550476 374.279449,306.550476 366.193512,306.550476 
	C366.183228,306.237091 366.172974,305.923676 366.162720,305.610291 
	C373.740234,304.571136 381.317749,303.531982 389.714722,302.380432 
	C387.255890,298.103729 385.281677,294.669983 383.307465,291.236206 
	C385.381958,291.285583 387.118256,291.813049 388.301605,292.927582 
	C390.343414,294.850647 391.956757,297.222198 393.932495,299.225464 
	C394.572174,299.874084 395.783997,299.958435 396.734131,300.300873 
	C396.834656,299.566071 396.935150,298.831268 397.424042,298.009583 
	C399.979095,297.978943 402.373810,298.668793 404.273987,297.984711 
	C413.926575,294.509735 423.475769,290.740875 433.005005,286.934235 
	C435.830841,285.805420 438.474060,284.219421 441.255554,282.815369 
	C433.441162,271.497467 412.277954,265.389160 397.227142,269.812744 
	C392.472076,271.650055 388.142548,273.621918 383.691101,275.263306 
	C381.898773,275.924225 379.775421,276.314026 377.912415,276.050781 
	C368.619202,274.737396 359.362457,273.165894 349.716736,271.505188 
	C332.194305,270.330109 315.106720,270.738495 297.901611,273.310150 
	C304.869751,279.866669 311.975128,285.854858 319.230560,291.655487 
	C320.105713,292.355133 322.007019,292.555511 323.068939,292.113434 
	C331.761566,288.494812 340.367889,284.668823 349.403992,280.940582 
	C360.896759,279.156555 371.983276,277.436493 384.138275,281.534302 
	C379.482025,282.119507 376.066742,282.463745 372.679626,282.989197 
	C358.506500,285.187988 348.453461,294.524353 345.658417,308.611938 
	C343.464783,319.668152 344.888641,330.443146 349.495880,340.770355 
	C358.341278,360.597626 372.447296,376.406799 387.938629,391.161407 
	C399.794891,401.685547 411.651123,412.209686 424.180603,423.331451 
	C410.012207,419.700958 397.122131,414.615967 384.338501,408.241211 
	C381.470367,406.655334 378.946014,405.119324 375.256073,402.874054 
	C385.530853,405.638336 394.476868,408.045105 402.692719,410.255463 
	C387.049957,396.081177 371.003510,381.946960 355.435181,367.304382 
	C343.236359,355.830994 331.629578,343.728119 319.309845,331.463867 
	C314.948578,327.181000 311.269257,323.062805 307.083588,319.547577 
	C292.988281,307.710083 278.712891,296.087097 264.272278,284.263092 
	C263.786407,284.207764 263.534668,284.271332 263.282928,284.334900 
	C263.481812,284.595215 263.680664,284.855530 263.944031,285.453674 
	C281.550446,307.577576 299.092407,329.363556 316.634338,351.149567 
	C325.732452,361.021729 334.829712,370.894745 343.929871,380.765015 
	C345.003326,381.929321 346.092743,383.078949 346.675842,384.745178 
	C332.324707,374.682495 320.291962,362.145569 308.341858,349.043762 
	C290.912415,327.448120 273.789124,305.997406 256.221710,283.990356 
	C245.393707,297.840546 234.679596,311.545105 223.856110,325.576721 
	C213.015152,338.137451 202.579987,350.649567 191.445450,362.504791 
	C184.286194,370.127441 176.131226,376.820648 168.337753,383.836243 
	C167.096970,384.953217 165.409042,385.573486 163.668030,386.058838 
	C194.084671,355.486481 221.556671,322.546936 247.464844,287.480957 
	C248.165054,286.456726 248.495560,285.909912 248.826065,285.363068 
	C248.631927,285.208038 248.437790,285.052979 248.243652,284.897949 
	C247.633530,285.305847 247.023407,285.713745 246.413300,286.121674 
	C235.797150,294.614685 224.575653,302.462494 214.691559,311.735809 
	C194.451614,330.725006 174.929611,350.479431 154.957535,370.196472 
	C141.985275,381.690125 129.186493,392.927948 116.330032,404.099457 
	C114.298897,405.864410 112.007240,407.329529 109.836014,408.933258 
	C110.002510,409.366028 110.169006,409.798767 110.335503,410.231506 
	C118.400131,408.100342 126.464760,405.969147 134.529388,403.837952 
	C124.146706,411.319763 112.499077,415.795593 100.348404,420.099792 
	C96.217651,421.306763 92.434380,422.347565 87.443886,423.720490 
	C97.955032,414.893311 107.409210,406.953766 117.335953,398.587646 
	C132.492767,385.024780 146.051331,370.867096 156.684891,354.179260 
	C162.800522,344.581726 167.812943,334.387451 168.473984,322.783081 
	C169.661255,301.940704 161.785614,288.111359 141.582458,283.384979 
	C137.770950,282.493256 133.791077,282.321289 129.888885,281.817200 
	C133.781158,280.263733 137.867432,278.887665 141.802856,279.232605 
	C152.125275,280.137390 162.381927,281.792572 172.922394,283.412354 
	C179.048431,286.695007 184.889709,289.769196 190.809052,292.684845 
	C191.943985,293.243896 193.900101,293.846436 194.607758,293.300903 
	C202.796890,286.987793 210.818665,280.457550 218.884842,273.984955 
	C218.665802,273.361511 218.446762,272.738098 218.227737,272.114685 
	C203.484619,271.769348 188.741516,271.424011 173.548126,271.004150 
	C164.441833,271.903656 155.806503,273.234558 147.123199,273.738129 
	C140.259247,274.136230 133.327774,279.945465 126.202133,273.540527 
	C108.123055,264.269684 81.103378,268.603882 72.561623,282.795074 
	C85.535194,287.911377 98.303093,292.996948 111.128372,297.933472 
	C112.553772,298.482086 115.188934,297.574432 115.746048,298.384888 
	C117.635056,301.133026 118.660851,300.000488 120.189934,298.229401 
	C122.348831,295.728821 124.695488,293.390320 127.319412,290.888580 
	C128.989700,290.026093 130.302444,289.257538 132.481216,287.981995 
	C129.271240,292.987396 126.673096,297.038727 123.687759,301.693817 
	C133.186905,303.376465 141.577560,304.862762 149.968216,306.349060 
	C149.938309,306.560242 149.908417,306.771393 149.878510,306.982544 
	C140.749557,306.982544 131.620605,306.982544 121.240082,306.982544 
	C120.922203,313.638550 120.272881,320.191803 120.516121,326.711761 
	C120.583420,328.515564 123.305214,330.220306 124.809097,331.970520 
	C126.408531,330.320740 128.939819,328.898224 129.409332,326.972870 
	C130.327713,323.206970 130.095245,319.160400 130.336578,315.271820 
	C135.464798,320.517212 130.333878,332.055695 140.222580,333.520844 
	C138.876907,337.773651 137.469330,342.222015 136.061768,346.670410 
	C139.228333,347.194489 142.394913,347.718567 145.246887,348.190582 
	C141.973831,354.298920 128.420822,362.306366 124.380280,361.002930 
	C125.917435,356.848450 128.009857,352.757507 128.858383,348.423004 
	C129.584702,344.712830 126.649506,342.941040 123.623306,345.246246 
	C120.272179,347.798981 117.655609,351.316010 114.719147,354.413086 
	C109.720734,362.759644 105.101463,371.364075 99.638741,379.394806 
	C90.496605,392.834564 77.746536,401.529694 62.015030,405.712585 
	C60.217041,406.190643 58.252785,406.043365 56.331791,405.886200 
	C85.518990,394.117676 101.280365,372.015472 107.023781,341.838715 
	C109.287613,329.944153 111.987083,318.132507 114.592377,305.789490 
	C113.171249,305.789490 110.701927,305.028748 109.242706,305.920624 
	C102.768051,309.877930 95.707626,310.095459 88.509979,310.213928 
	C81.926140,310.322327 75.346634,310.694122 67.575752,310.996063 
	C64.180359,307.096680 59.299770,302.657684 51.491531,302.839874 
	C51.550762,302.158295 51.891865,301.217651 52.494640,300.999268 
	C56.461441,299.562164 60.239086,298.037109 61.857964,293.585541 
	C63.538956,288.963196 64.704979,284.599487 58.943729,281.822113 
	C58.083382,281.407379 57.239521,280.642944 56.749371,279.824005 
	C51.155239,270.477661 42.453594,269.778961 32.972424,271.146729 
	C32.159115,271.264069 31.329966,271.277374 30.507145,271.318176 
	C30.349848,271.325958 30.187685,271.235596 29.554577,271.057129 
	C29.986889,267.081970 27.252508,262.492493 32.946945,259.275391 
	C33.505047,265.333099 38.080086,261.768768 40.742195,263.223969 
	C39.648006,261.068665 38.853451,259.503601 38.314301,257.613281 
	C41.044601,259.184601 43.440212,262.570068 46.008820,262.706848 
	C54.746807,263.172180 63.141972,260.985504 70.924980,255.860672 
	C62.680611,253.640991 54.430416,252.065598 46.109386,251.101715 
	C41.872623,250.610916 38.587406,253.914337 37.657227,258.079498 
	C35.755817,258.460175 34.285622,258.742523 32.815426,259.024872 
	C34.330399,256.883301 34.787430,255.609253 32.403549,252.975906 
	C30.497929,250.870850 31.249287,246.360550 30.822594,242.927765 
	C38.169868,242.100510 45.730900,246.226120 50.881744,238.360107 
	C55.136452,234.441986 59.293167,230.884598 63.377937,227.246414 
	C65.796303,225.092453 64.458473,219.006378 60.637009,216.182587 
	C58.425789,214.548676 55.709156,213.598755 54.115742,212.793625 
	C59.252415,209.866547 65.009995,206.585648 70.853302,203.255905 
	C76.889481,203.429611 83.660744,203.196762 90.324013,203.936569 
	C96.977859,204.675323 103.513313,206.444733 110.122757,207.640167 
	C112.194824,208.014938 114.338455,207.993958 117.209587,208.211807 
	C109.667900,187.880188 110.707726,165.942932 100.868263,146.934921 
	C91.537025,128.908691 77.600266,115.662842 58.307785,107.687576 
	C60.592979,108.027122 62.934986,108.152153 65.154427,108.739967 
	C83.759674,113.667404 96.661743,125.759171 106.268181,141.853714 
	C109.149345,146.680817 111.721901,151.692123 114.738861,157.177185 
	C118.347916,161.402878 121.509956,165.220398 125.062149,168.631607 
	C125.940338,169.474930 128.562897,169.649002 129.516281,168.949158 
	C130.500198,168.226944 131.165924,165.762100 130.684570,164.586151 
	C128.880508,160.178696 126.550476,155.986526 124.512642,151.904053 
	C133.733444,153.363403 141.249451,159.130432 147.702133,166.685211 
	C146.395889,166.743546 145.285553,166.025711 144.240234,166.110413 
	C142.091980,166.284470 139.329361,166.248779 138.068542,167.529221 
	C137.158554,168.453354 137.797180,171.573334 138.587952,173.335785 
	C139.636978,175.673737 141.507126,177.643265 143.240601,180.074280 
	C132.173401,182.031418 137.330872,193.527390 132.202026,198.763596 
	C131.898590,194.741379 132.004501,190.611511 131.106873,186.712662 
	C130.693085,184.915329 128.316223,183.569931 126.829453,182.019623 
	C125.267967,183.711029 122.423706,185.364731 122.372696,187.100540 
	C122.178223,193.717941 122.884407,200.361832 123.281960,207.495422 
	C131.137039,207.495422 137.534180,207.495422 143.931320,207.495422 
	C143.936035,207.813980 143.940765,208.132538 143.945480,208.451096 
	C138.031708,209.467117 132.117920,210.483124 125.002686,211.705551 
	C128.561035,216.973419 131.554901,221.405624 134.773956,226.171188 
	C133.542252,225.765289 132.769180,225.510529 131.729431,225.036560 
	C127.982407,221.443405 124.430595,218.139114 121.048363,214.669525 
	C119.000954,212.569214 117.726227,212.148712 117.218811,215.783478 
	C117.097488,215.901718 116.850304,216.133453 116.483139,216.007324 
	C114.421738,215.722656 112.547874,215.014679 111.064079,215.499771 
	C104.301277,217.710785 97.572807,220.070969 90.977989,222.738449 
	C85.102608,225.114929 79.418709,227.964798 73.554771,230.649490 
	C84.143074,247.239868 116.042519,250.261902 133.422272,237.051849 
	C147.601013,241.004837 161.639542,243.113281 176.457626,243.028488 
	C190.127121,242.722748 203.337311,242.316406 216.547516,241.910049 
	C216.663635,241.333282 216.779770,240.756516 216.895905,240.179733 
	C209.105362,233.626450 201.314819,227.073181 194.407761,221.263062 
	C187.083344,224.768600 180.974075,227.692551 174.470764,230.679321 
	C160.223557,234.571487 146.295395,237.086426 131.820312,232.948364 
	C132.095078,232.373444 132.548370,231.992340 133.401703,231.704468 
	C136.443497,231.515244 139.103302,231.346802 141.724014,230.931595 
	C157.331161,228.458954 168.545975,217.990692 169.685318,202.939224 
	C170.296432,194.865814 169.787720,186.070419 167.170471,178.505112 
	C158.024078,152.066895 138.685120,132.993149 118.460075,114.784897 
	C109.206192,106.976303 99.952316,99.167709 89.923325,90.705070 
	C92.788406,91.275673 94.968964,91.709953 97.542908,92.168091 
M77.102814,219.214539 
	C86.147202,215.818771 95.191589,212.423004 103.835602,209.177551 
	C93.424973,206.012619 81.907234,209.855789 75.335976,219.050430 
	C75.339241,219.295761 75.342499,219.541092 75.345764,219.786407 
	C75.698685,219.658508 76.051613,219.530609 77.102814,219.214539 
M235.628403,229.888153 
	C230.355728,227.074051 225.160522,224.099274 219.781372,221.506027 
	C216.547531,219.947021 214.763412,218.243454 214.660889,214.191376 
	C214.528778,208.970917 211.390182,205.346649 206.095596,203.843033 
	C200.666168,202.301117 195.969437,203.803986 192.740738,208.036118 
	C191.349686,209.859482 190.896133,213.475616 191.723526,215.618164 
	C192.593521,217.870926 195.385757,219.493637 197.545135,221.116013 
	C205.252686,226.906876 213.036774,232.596329 220.824158,238.279953 
	C221.865631,239.040100 223.166901,240.189713 224.221085,240.067276 
	C231.624298,239.207397 238.994263,238.061066 246.374847,237.006302 
	C246.353500,236.543396 246.332153,236.080490 246.310806,235.617569 
	C242.978165,233.804810 239.645538,231.992035 235.628403,229.888153 
M280.764343,284.761414 
	C285.762054,287.363281 290.698273,290.094086 295.781158,292.517303 
	C298.694885,293.906311 300.334198,295.360077 300.373810,299.098877 
	C300.437073,305.064575 303.750031,308.647461 308.896332,309.927521 
	C314.704987,311.372253 320.017914,309.649292 323.038940,305.218994 
	C324.744843,302.717346 325.758850,299.893829 322.875946,297.688599 
	C313.109833,290.218140 303.219757,282.909210 293.340302,275.588104 
	C292.311859,274.825989 290.961609,273.774689 289.892090,273.908447 
	C282.834412,274.791046 275.812714,275.961456 268.779266,277.038086 
	C268.788177,277.487854 268.797089,277.937622 268.805969,278.387390 
	C272.585938,280.376709 276.365875,282.365997 280.764343,284.761414 
M221.363434,276.727448 
	C211.326492,283.791992 201.387039,291.001801 191.198151,297.839935 
	C187.769028,300.141357 188.575211,302.406616 190.124405,304.941040 
	C192.864029,309.422974 198.668930,311.473358 204.127106,310.100189 
	C209.491333,308.750702 212.908707,304.798828 212.927933,298.909180 
	C212.937653,295.930328 214.020004,294.519012 216.495667,293.266052 
	C223.749771,289.594788 230.901550,285.720337 238.073395,281.888031 
	C240.285919,280.705750 242.434250,279.403351 245.773819,277.490448 
	C239.430344,276.321167 234.613968,275.090881 229.728195,274.673828 
	C227.195282,274.457642 224.539505,275.681122 221.363434,276.727448 
M325.777863,214.799911 
	C325.360077,212.647675 325.515564,210.124435 324.410553,208.416962 
	C321.742065,204.293579 315.609161,202.663406 310.529388,204.108719 
	C305.838745,205.443329 302.140808,209.539597 302.208954,214.745880 
	C302.257446,218.445923 300.713409,219.936234 297.749939,221.404633 
	C289.563904,225.460815 281.522125,229.809097 273.446228,234.085205 
	C272.412872,234.632339 271.515442,235.436279 269.836273,236.633881 
	C275.418518,237.651184 280.044342,238.223648 284.513855,239.393356 
	C288.158386,240.347153 290.692444,239.177216 293.592712,237.094208 
	C303.977234,229.635895 314.590546,222.496078 325.777863,214.799911 
M319.249725,252.206131 
	C310.655212,250.322922 302.084412,248.314606 293.442993,246.679214 
	C291.997040,246.405579 289.825562,247.322479 288.706177,248.420212 
	C283.647247,253.381241 285.593781,258.312134 288.857391,263.477325 
	C290.737671,266.453156 292.463776,267.376801 296.039459,266.619202 
	C310.007355,263.659851 324.054749,261.073883 338.080902,258.392761 
	C340.457062,257.938538 342.874268,257.699097 345.272522,257.360443 
	C345.225067,257.073639 345.177582,256.786804 345.130127,256.499969 
	C336.781372,255.135544 328.432617,253.771088 319.249725,252.206131 
M207.307480,264.105011 
	C212.156891,265.246246 216.978027,266.547333 221.876053,267.413788 
	C223.068756,267.624786 224.993820,266.779877 225.764877,265.786224 
	C230.511124,259.669891 230.297699,258.407654 225.158997,249.846222 
	C223.752228,247.502441 222.472870,246.808472 219.603897,247.418121 
	C206.444168,250.214493 193.211929,252.671097 179.998505,255.212128 
	C176.662796,255.853622 173.300491,256.356750 168.597000,257.152405 
	C182.273804,259.617157 194.373535,261.797699 207.307480,264.105011 
M249.312149,264.167480 
	C251.566177,267.624908 253.820190,271.082336 256.140198,274.640991 
	C269.962769,257.881195 270.147522,255.516861 259.041534,240.336243 
	C258.869293,240.100800 258.570618,239.957886 257.884613,239.425247 
	C254.837158,244.179214 252.057877,249.071732 248.719788,253.547470 
	C246.006622,257.185303 245.963913,260.270325 249.312149,264.167480 
M108.147522,262.847260 
	C111.279900,260.843597 114.412270,258.839966 117.699638,256.737183 
	C105.836174,245.374985 90.666351,246.218811 82.818138,258.055756 
	C89.087555,265.664764 97.199577,267.333496 108.147522,262.847260 
M424.368347,263.136688 
	C427.202118,260.985992 430.035889,258.835327 432.843628,256.704376 
	C423.886719,244.794632 406.508484,247.072800 397.875336,258.316803 
	C405.749969,263.930908 413.798340,267.999390 424.368347,263.136688 
M445.374390,256.632721 
	C445.519836,257.301025 445.541718,258.493042 445.828796,258.560760 
	C452.408234,260.112915 458.991638,261.672089 465.628082,262.950897 
	C470.290283,263.849213 473.990387,262.208679 476.236938,257.792297 
	C472.701111,252.622299 468.451324,249.492966 461.707672,251.747452 
	C456.551117,253.471344 451.247559,254.755432 445.374390,256.632721 
M439.307465,216.204010 
	C429.295166,207.833572 418.426849,205.549561 412.232422,210.006134 
	C422.287109,214.028687 432.673584,218.183945 443.892670,222.672333 
	C442.210419,220.224411 441.007568,218.474060 439.307465,216.204010 
M96.119705,301.457947 
	C88.093872,298.241180 80.068031,295.024384 72.202377,291.871826 
	C73.664604,301.489288 95.681358,310.005829 104.207062,303.641815 
	C101.485008,302.941437 99.174347,302.346924 96.119705,301.457947 
M419.231354,305.907684 
	C427.600555,304.703583 434.961090,301.743988 440.394745,294.122681 
	C429.856171,297.806793 419.980499,301.259155 409.245728,305.011871 
	C412.811798,305.391815 415.592834,305.688110 419.231354,305.907684 
M266.974915,274.075226 
	C272.422119,272.649261 277.869354,271.223328 283.748138,269.684387 
	C276.647797,265.031006 267.974060,267.435486 266.974915,274.075226 
M235.184631,243.506195 
	C233.919159,243.905182 232.653687,244.304169 230.947571,244.842087 
	C238.722031,249.278412 242.758255,248.261719 247.306671,240.429611 
	C243.039719,241.482224 239.481888,242.359894 235.184631,243.506195 
M232.153076,269.591125 
	C236.825043,271.241913 241.497009,272.892670 246.168976,274.543457 
	C239.781631,265.905792 239.516113,265.822388 232.153076,269.591125 
M280.887024,245.697250 
	C281.512207,245.294052 282.137421,244.890869 283.595215,243.950699 
	C277.729919,242.367111 272.692169,241.006927 267.654388,239.646759 
	C267.525726,240.061417 267.397034,240.476074 267.268341,240.890717 
	C271.622070,242.478455 273.583038,249.642563 280.887024,245.697250 
M480.982971,253.545013 
	C478.904022,252.466660 476.825073,251.388321 474.746124,250.309982 
	C474.504425,250.860580 474.262695,251.411179 474.020996,251.961792 
	C476.214172,252.570679 476.013062,259.047852 480.982971,253.545013 
M112.697632,104.059219 
	C112.278709,104.184822 111.859787,104.310425 111.440872,104.436035 
	C111.565590,104.642021 111.702827,105.030174 111.812859,105.022606 
	C112.300667,104.989044 112.780663,104.841927 112.697632,104.059219 
z"/>
<path fill="#17304D" opacity="1.000000" stroke="none" 
	d="
M319.554871,182.861115 
	C316.762390,186.337158 313.842316,189.951004 310.398499,192.966766 
	C297.891388,203.919312 285.232697,214.699524 272.566589,225.468811 
	C270.690826,227.063675 268.467590,228.249969 265.911407,229.186157 
	C281.114258,206.529419 298.400177,185.544846 316.575104,164.856934 
	C317.253998,168.892288 317.557526,173.091187 318.030396,177.270950 
	C318.238342,179.108902 318.790894,180.907852 319.554871,182.861115 
z"/>
<path fill="#1B2B49" opacity="1.000000" stroke="none" 
	d="
M248.783417,228.219376 
	C237.908783,219.493546 227.034134,210.767715 215.999115,201.767822 
	C216.608063,197.033600 217.377426,192.573456 218.502106,187.894547 
	C229.038010,200.753372 239.218597,213.830933 249.318634,227.374466 
	C249.086517,227.966751 248.934967,228.093063 248.783417,228.219376 
z"/>
<path fill="#17304D" opacity="1.000000" stroke="none" 
	d="
M316.938782,350.873016 
	C299.092407,329.363556 281.550446,307.577576 264.109009,285.277283 
	C264.209473,284.763000 264.506409,284.382019 264.506409,284.382019 
	C278.712891,296.087097 292.988281,307.710083 307.083588,319.547577 
	C311.269257,323.062805 314.948578,327.181000 319.000305,331.312317 
	C318.508240,337.933289 317.875763,344.264893 316.938782,350.873016 
z"/>
<path fill="#1C2544" opacity="1.000000" stroke="none" 
	d="
M118.132751,115.081070 
	C138.685120,132.993149 158.024078,152.066895 167.170471,178.505112 
	C169.787720,186.070419 170.296432,194.865814 169.685318,202.939224 
	C168.545975,217.990692 157.331161,228.458954 141.724014,230.931595 
	C139.103302,231.346802 136.443497,231.515244 133.380188,231.348450 
	C132.637787,229.018051 132.316940,227.136917 131.996094,225.255768 
	C132.769180,225.510529 133.542252,225.765289 134.773956,226.171188 
	C131.554901,221.405624 128.561035,216.973419 125.002686,211.705551 
	C132.117920,210.483124 138.031708,209.467117 143.945480,208.451096 
	C143.940765,208.132538 143.936035,207.813980 143.931320,207.495422 
	C137.534180,207.495422 131.137039,207.495422 123.281960,207.495422 
	C122.884407,200.361832 122.178223,193.717941 122.372696,187.100540 
	C122.423706,185.364731 125.267967,183.711029 126.829453,182.019623 
	C128.316223,183.569931 130.693085,184.915329 131.106873,186.712662 
	C132.004501,190.611511 131.898590,194.741379 132.202026,198.763596 
	C137.330872,193.527390 132.173401,182.031418 143.240601,180.074280 
	C141.507126,177.643265 139.636978,175.673737 138.587952,173.335785 
	C137.797180,171.573334 137.158554,168.453354 138.068542,167.529221 
	C139.329361,166.248779 142.091980,166.284470 144.240234,166.110413 
	C145.285553,166.025711 146.395889,166.743546 147.702133,166.685211 
	C141.249451,159.130432 133.733444,153.363403 124.512642,151.904053 
	C126.550476,155.986526 128.880508,160.178696 130.684570,164.586151 
	C131.165924,165.762100 130.500198,168.226944 129.516281,168.949158 
	C128.562897,169.649002 125.940338,169.474930 125.062149,168.631607 
	C121.509956,165.220398 118.347916,161.402878 115.012047,157.390961 
	C115.654991,155.096512 116.871422,153.156952 116.909348,151.194580 
	C117.105713,141.034149 116.962593,130.867615 117.037201,120.703918 
	C117.050247,118.926575 117.537285,117.152725 118.132751,115.081070 
z"/>
<path fill="#1C2544" opacity="1.000000" stroke="none" 
	d="
M172.664780,283.148743 
	C162.381927,281.792572 152.125275,280.137390 141.802856,279.232605 
	C137.867432,278.887665 133.781158,280.263733 129.888885,281.817200 
	C133.791077,282.321289 137.770950,282.493256 141.582458,283.384979 
	C161.785614,288.111359 169.661255,301.940704 168.473984,322.783081 
	C167.812943,334.387451 162.800522,344.581726 156.684891,354.179260 
	C146.051331,370.867096 132.492767,385.024780 117.494270,398.307587 
	C116.787094,396.210114 116.082474,393.969849 116.054878,391.721313 
	C115.931404,381.663300 116.051849,371.602417 115.959297,361.543732 
	C115.939987,359.445312 115.390991,357.351807 114.902626,354.834564 
	C117.655609,351.316010 120.272179,347.798981 123.623306,345.246246 
	C126.649506,342.941040 129.584702,344.712830 128.858383,348.423004 
	C128.009857,352.757507 125.917435,356.848450 124.380280,361.002930 
	C128.420822,362.306366 141.973831,354.298920 145.246887,348.190582 
	C142.394913,347.718567 139.228333,347.194489 136.061768,346.670410 
	C137.469330,342.222015 138.876907,337.773651 140.222580,333.520844 
	C130.333878,332.055695 135.464798,320.517212 130.336578,315.271820 
	C130.095245,319.160400 130.327713,323.206970 129.409332,326.972870 
	C128.939819,328.898224 126.408531,330.320740 124.809097,331.970520 
	C123.305214,330.220306 120.583420,328.515564 120.516121,326.711761 
	C120.272881,320.191803 120.922203,313.638550 121.240082,306.982544 
	C131.620605,306.982544 140.749557,306.982544 149.878510,306.982544 
	C149.908417,306.771393 149.938309,306.560242 149.968216,306.349060 
	C141.577560,304.862762 133.186905,303.376465 123.687759,301.693817 
	C126.673096,297.038727 129.271240,292.987396 132.481216,287.981995 
	C130.302444,289.257538 128.989700,290.026093 127.082672,290.612549 
	C126.471931,284.895020 126.455467,279.359589 126.438995,273.824158 
	C133.327774,279.945465 140.259247,274.136230 147.123199,273.738129 
	C155.806503,273.234558 164.441833,271.903656 173.549011,271.459045 
	C173.555038,275.708588 173.109909,279.428650 172.664780,283.148743 
z"/>
<path fill="#182645" opacity="1.000000" stroke="none" 
	d="
M152.019531,395.046143 
	C152.048416,395.080750 151.758484,395.391541 151.758484,395.391541 
	C151.758484,395.391541 151.736816,395.079132 151.829132,395.016418 
	C151.921448,394.953735 151.990662,395.011505 152.019531,395.046143 
z"/>
<path fill="#13334F" opacity="1.000000" stroke="none" 
	d="
M385.080750,224.086548 
	C388.311218,221.339142 391.698883,218.751694 394.715546,215.786758 
	C396.646637,213.888733 397.901276,212.969116 398.829559,216.779175 
	C399.056946,219.819839 399.869202,222.277496 399.934204,224.754776 
	C400.104675,231.247818 399.949066,237.749420 399.923401,244.247620 
	C394.918457,242.296661 389.926605,240.311020 384.900299,238.416733 
	C383.471405,237.878235 381.849915,237.063690 380.474060,237.298309 
	C370.962372,238.920441 361.492310,240.786514 351.536377,242.040680 
	C351.428986,238.758835 351.794098,236.010559 352.159210,233.262268 
	C363.179169,235.059677 374.185577,236.335388 386.269684,232.591949 
	C381.212219,231.823959 377.319336,231.456421 373.530121,230.619507 
	C355.078644,226.544083 345.837463,213.473114 346.497803,193.286041 
	C346.822418,183.361343 349.899292,174.403976 354.621277,165.887817 
	C365.069183,147.044907 379.741852,131.714371 395.661377,117.055710 
	C395.985870,130.000839 395.947083,143.060104 396.043671,156.118393 
	C396.060394,158.384125 396.649506,160.645615 397.155823,163.345825 
	C396.834717,164.437180 396.467865,165.403946 395.805695,165.692139 
	C392.988556,166.918228 390.083954,167.943359 387.211243,169.041855 
	C387.329163,165.897476 386.832672,162.559357 387.745117,159.665497 
	C388.586456,156.997162 390.940521,154.805817 392.975281,151.910629 
	C382.171295,152.970139 375.225494,159.574707 367.513336,167.344162 
	C370.304504,166.675018 372.054108,165.945755 373.812866,165.922974 
	C375.498596,165.901123 378.003998,166.088074 378.680786,167.133713 
	C379.535889,168.454865 379.474701,170.990677 378.784668,172.549072 
	C377.665680,175.076035 375.713806,177.234207 373.855591,179.921158 
	C384.364105,182.154327 380.114594,192.897675 384.724762,199.125168 
	C384.975891,194.935806 384.737946,190.936554 385.633148,187.209427 
	C386.107025,185.236526 388.551361,183.736923 390.106140,182.023651 
	C391.694031,183.873199 394.559540,185.671356 394.636353,187.581650 
	C394.892883,193.960571 394.150726,200.379639 393.778687,207.005798 
	C383.996307,207.005798 375.244873,207.005798 366.493439,207.005798 
	C366.432098,207.374329 366.370758,207.742844 366.309387,208.111374 
	C374.266174,209.447937 382.222931,210.784515 391.444275,212.333511 
	C388.766602,216.303635 386.598816,219.517792 384.040955,223.163849 
	C383.371643,223.999649 383.092377,224.403519 382.491089,224.832001 
	C381.856476,225.110947 381.543884,225.365295 381.231293,225.619629 
	C381.943024,225.570007 382.654724,225.520401 383.637451,225.367340 
	C384.299194,224.871460 384.689972,224.479004 385.080750,224.086548 
z"/>
<path fill="#13334F" opacity="1.000000" stroke="none" 
	d="
M350.092896,271.685211 
	C359.362457,273.165894 368.619202,274.737396 377.912415,276.050781 
	C379.775421,276.314026 381.898773,275.924225 383.691101,275.263306 
	C388.142548,273.621918 392.472076,271.650055 397.546387,270.113373 
	C398.479889,277.847382 398.805237,285.278564 398.831848,292.710815 
	C398.834808,293.537354 397.136627,294.369995 396.074219,295.339569 
	C396.279816,295.929138 396.657745,297.012817 397.035645,298.096466 
	C396.935150,298.831268 396.834656,299.566071 396.734131,300.300873 
	C395.783997,299.958435 394.572174,299.874084 393.932495,299.225464 
	C391.956757,297.222198 390.343414,294.850647 388.301605,292.927582 
	C387.118256,291.813049 385.381958,291.285583 383.307465,291.236206 
	C385.281677,294.669983 387.255890,298.103729 389.714722,302.380432 
	C381.317749,303.531982 373.740234,304.571136 366.162720,305.610291 
	C366.172974,305.923676 366.183228,306.237091 366.193512,306.550476 
	C374.279449,306.550476 382.365417,306.550476 391.864532,306.550476 
	C392.233582,313.716217 392.872284,320.375671 392.712555,327.015900 
	C392.672180,328.694641 390.083344,330.312103 388.665588,331.957703 
	C387.060760,330.362793 384.626526,329.025330 384.033844,327.116211 
	C382.988495,323.749054 383.066315,320.033173 382.649963,316.245514 
	C377.874451,321.298462 382.671936,332.366333 371.608490,333.553894 
	C373.290619,335.904602 375.323395,338.111572 376.561951,340.698700 
	C377.389374,342.427002 377.985168,345.600891 377.073975,346.505768 
	C375.791504,347.779205 373.029297,347.740753 370.874390,347.886078 
	C369.703186,347.965057 368.479340,347.263702 366.127136,346.578857 
	C372.762512,354.216736 379.751678,359.160126 388.645996,362.001587 
	C388.656555,371.491974 388.312714,380.847931 387.953735,390.682648 
	C372.447296,376.406799 358.341278,360.597626 349.495880,340.770355 
	C344.888641,330.443146 343.464783,319.668152 345.658417,308.611938 
	C348.453461,294.524353 358.506500,285.187988 372.679626,282.989197 
	C376.066742,282.463745 379.482025,282.119507 384.138275,281.534302 
	C371.983276,277.436493 360.896759,279.156555 349.403748,280.516602 
	C349.364227,277.266998 349.728546,274.476105 350.092896,271.685211 
M381.080566,290.247131 
	C381.080566,290.247131 381.381836,290.233673 381.381836,290.233673 
	C381.381836,290.233673 381.074066,289.951569 380.974426,289.472260 
	C380.691193,289.131195 380.407959,288.790161 380.124725,288.449097 
	C379.963715,288.607330 379.802673,288.765533 379.641663,288.923767 
	C380.080200,289.304474 380.518768,289.685181 381.080566,290.247131 
z"/>
<path fill="#182544" opacity="1.000000" stroke="none" 
	d="
M141.093048,111.453262 
	C141.601334,111.748955 141.874512,112.078781 142.147690,112.408607 
	C141.881607,112.539490 141.615524,112.670364 141.349442,112.801239 
	C141.185623,112.363297 141.021790,111.925354 141.093048,111.453262 
z"/>
<path fill="#1D2342" opacity="1.000000" stroke="none" 
	d="
M131.729431,225.036560 
	C132.316940,227.136917 132.637787,229.018051 132.980148,231.255219 
	C132.548370,231.992340 132.095078,232.373444 131.875809,233.282745 
	C132.414154,234.895432 132.718475,235.979874 133.022812,237.064331 
	C116.042519,250.261902 84.143074,247.239868 73.554771,230.649490 
	C79.418709,227.964798 85.102608,225.114929 90.977989,222.738449 
	C97.572807,220.070969 104.301277,217.710785 111.064079,215.499771 
	C112.547874,215.014679 114.421738,215.722656 116.500725,216.331299 
	C117.136261,217.096497 117.387047,217.411591 117.637833,217.726685 
	C117.538589,217.039536 117.439362,216.352371 117.340126,215.665222 
	C117.726227,212.148712 119.000954,212.569214 121.048363,214.669525 
	C124.430595,218.139114 127.982407,221.443405 131.729431,225.036560 
z"/>
<path fill="#1E2343" opacity="1.000000" stroke="none" 
	d="
M126.202141,273.540527 
	C126.455467,279.359589 126.471931,284.895020 126.725136,290.706482 
	C124.695488,293.390320 122.348831,295.728821 120.189934,298.229401 
	C118.660851,300.000488 117.635056,301.133026 115.746048,298.384888 
	C115.188934,297.574432 112.553772,298.482086 111.128372,297.933472 
	C98.303093,292.996948 85.535194,287.911377 72.561623,282.795074 
	C81.103378,268.603882 108.123055,264.269684 126.202141,273.540527 
z"/>
<path fill="#133652" opacity="1.000000" stroke="none" 
	d="
M397.424042,298.009583 
	C396.657745,297.012817 396.279816,295.929138 396.074219,295.339569 
	C397.136627,294.369995 398.834808,293.537354 398.831848,292.710815 
	C398.805237,285.278564 398.479889,277.847382 397.922974,270.115234 
	C412.277954,265.389160 433.441162,271.497467 441.255554,282.815369 
	C438.474060,284.219421 435.830841,285.805420 433.005005,286.934235 
	C423.475769,290.740875 413.926575,294.509735 404.273987,297.984711 
	C402.373810,298.668793 399.979095,297.978943 397.424042,298.009583 
z"/>
<path fill="#133652" opacity="1.000000" stroke="none" 
	d="
M400.244934,244.478210 
	C399.949066,237.749420 400.104675,231.247818 399.934204,224.754776 
	C399.869202,222.277496 399.056946,219.819839 398.830078,217.158340 
	C400.773132,216.691147 402.737976,215.722626 404.127808,216.255096 
	C416.927002,221.158707 429.626709,226.322021 442.290161,232.346222 
	C430.237579,243.802444 416.280670,247.241852 400.244934,244.478210 
z"/>
<path fill="#1B2B49" opacity="1.000000" stroke="none" 
	d="
M235.970657,230.033722 
	C239.645538,231.992035 242.978165,233.804810 246.310806,235.617569 
	C246.332153,236.080490 246.353500,236.543396 246.374847,237.006302 
	C238.994263,238.061066 231.624298,239.207397 224.221085,240.067276 
	C223.166901,240.189713 221.865631,239.040100 220.824158,238.279953 
	C213.036774,232.596329 205.252686,226.906876 197.545135,221.116013 
	C195.385757,219.493637 192.593521,217.870926 191.723526,215.618164 
	C190.896133,213.475616 191.349686,209.859482 192.740738,208.036118 
	C195.969437,203.803986 200.666168,202.301117 206.095596,203.843033 
	C211.390182,205.346649 214.528778,208.970917 214.660889,214.191376 
	C214.763412,218.243454 216.547531,219.947021 219.781372,221.506027 
	C225.160522,224.099274 230.355728,227.074051 235.970657,230.033722 
z"/>
<path fill="#16314E" opacity="1.000000" stroke="none" 
	d="
M351.828979,233.136444 
	C351.794098,236.010559 351.428986,238.758835 351.090027,241.977295 
	C335.013611,242.146408 318.910522,241.866394 302.808960,241.517319 
	C300.824249,241.474304 298.847504,241.062759 295.299225,240.631393 
	C304.356232,233.046722 312.600342,226.142807 321.140594,218.990906 
	C330.361603,226.443375 340.542755,230.610428 351.828979,233.136444 
z"/>
<path fill="#18314E" opacity="1.000000" stroke="none" 
	d="
M280.455078,284.558350 
	C276.365875,282.365997 272.585938,280.376709 268.805969,278.387390 
	C268.797089,277.937622 268.788177,277.487854 268.779266,277.038086 
	C275.812714,275.961456 282.834412,274.791046 289.892090,273.908447 
	C290.961609,273.774689 292.311859,274.825989 293.340302,275.588104 
	C303.219757,282.909210 313.109833,290.218140 322.875946,297.688599 
	C325.758850,299.893829 324.744843,302.717346 323.038940,305.218994 
	C320.017914,309.649292 314.704987,311.372253 308.896332,309.927521 
	C303.750031,308.647461 300.437073,305.064575 300.373810,299.098877 
	C300.334198,295.360077 298.694885,293.906311 295.781158,292.517303 
	C290.698273,290.094086 285.762054,287.363281 280.455078,284.558350 
z"/>
<path fill="#1B2B49" opacity="1.000000" stroke="none" 
	d="
M221.651337,276.490845 
	C224.539505,275.681122 227.195282,274.457642 229.728195,274.673828 
	C234.613968,275.090881 239.430344,276.321167 245.773819,277.490448 
	C242.434250,279.403351 240.285919,280.705750 238.073395,281.888031 
	C230.901550,285.720337 223.749771,289.594788 216.495667,293.266052 
	C214.020004,294.519012 212.937653,295.930328 212.927933,298.909180 
	C212.908707,304.798828 209.491333,308.750702 204.127106,310.100189 
	C198.668930,311.473358 192.864029,309.422974 190.124405,304.941040 
	C188.575211,302.406616 187.769028,300.141357 191.198151,297.839935 
	C201.387039,291.001801 211.326492,283.791992 221.651337,276.490845 
z"/>
<path fill="#16324F" opacity="1.000000" stroke="none" 
	d="
M349.716736,271.505188 
	C349.728546,274.476105 349.364227,277.266998 349.000153,280.481873 
	C340.367889,284.668823 331.761566,288.494812 323.068939,292.113434 
	C322.007019,292.555511 320.105713,292.355133 319.230560,291.655487 
	C311.975128,285.854858 304.869751,279.866669 297.901611,273.310150 
	C315.106720,270.738495 332.194305,270.330109 349.716736,271.505188 
z"/>
<path fill="#18314E" opacity="1.000000" stroke="none" 
	d="
M325.447571,215.017853 
	C314.590546,222.496078 303.977234,229.635895 293.592712,237.094208 
	C290.692444,239.177216 288.158386,240.347153 284.513855,239.393356 
	C280.044342,238.223648 275.418518,237.651184 269.836273,236.633881 
	C271.515442,235.436279 272.412872,234.632339 273.446228,234.085205 
	C281.522125,229.809097 289.563904,225.460815 297.749939,221.404633 
	C300.713409,219.936234 302.257446,218.445923 302.208954,214.745880 
	C302.140808,209.539597 305.838745,205.443329 310.529388,204.108719 
	C315.609161,202.663406 321.742065,204.293579 324.410553,208.416962 
	C325.515564,210.124435 325.360077,212.647675 325.447571,215.017853 
z"/>
<path fill="#1B2948" opacity="1.000000" stroke="none" 
	d="
M172.922394,283.412354 
	C173.109909,279.428650 173.555038,275.708588 173.999298,271.533569 
	C188.741516,271.424011 203.484619,271.769348 218.227737,272.114685 
	C218.446762,272.738098 218.665802,273.361511 218.884842,273.984955 
	C210.818665,280.457550 202.796890,286.987793 194.607758,293.300903 
	C193.900101,293.846436 191.943985,293.243896 190.809052,292.684845 
	C184.889709,289.769196 179.048431,286.695007 172.922394,283.412354 
z"/>
<path fill="#19324F" opacity="1.000000" stroke="none" 
	d="
M319.666809,252.306396 
	C328.432617,253.771088 336.781372,255.135544 345.130127,256.499969 
	C345.177582,256.786804 345.225067,257.073639 345.272522,257.360443 
	C342.874268,257.699097 340.457062,257.938538 338.080902,258.392761 
	C324.054749,261.073883 310.007355,263.659851 296.039459,266.619202 
	C292.463776,267.376801 290.737671,266.453156 288.857391,263.477325 
	C285.593781,258.312134 283.647247,253.381241 288.706177,248.420212 
	C289.825562,247.322479 291.997040,246.405579 293.442993,246.679214 
	C302.084412,248.314606 310.655212,250.322922 319.666809,252.306396 
z"/>
<path fill="#1C2C4A" opacity="1.000000" stroke="none" 
	d="
M206.890381,264.041626 
	C194.373535,261.797699 182.273804,259.617157 168.597000,257.152405 
	C173.300491,256.356750 176.662796,255.853622 179.998505,255.212128 
	C193.211929,252.671097 206.444168,250.214493 219.603897,247.418121 
	C222.472870,246.808472 223.752228,247.502441 225.158997,249.846222 
	C230.297699,258.407654 230.511124,259.669891 225.764877,265.786224 
	C224.993820,266.779877 223.068756,267.624786 221.876053,267.413788 
	C216.978027,266.547333 212.156891,265.246246 206.890381,264.041626 
z"/>
<path fill="#1B2948" opacity="1.000000" stroke="none" 
	d="
M174.864792,230.616486 
	C180.974075,227.692551 187.083344,224.768600 194.407761,221.263062 
	C201.314819,227.073181 209.105362,233.626450 216.895905,240.179733 
	C216.779770,240.756516 216.663635,241.333282 216.547516,241.910049 
	C203.337311,242.316406 190.127121,242.722748 176.458527,242.578796 
	C175.621689,238.224472 175.243240,234.420486 174.864792,230.616486 
z"/>
<path fill="#1B2F4C" opacity="1.000000" stroke="none" 
	d="
M249.132751,263.850494 
	C245.963913,260.270325 246.006622,257.185303 248.719788,253.547470 
	C252.057877,249.071732 254.837158,244.179214 257.884613,239.425247 
	C258.570618,239.957886 258.869293,240.100800 259.041534,240.336243 
	C270.147522,255.516861 269.962769,257.881195 256.140198,274.640991 
	C253.820190,271.082336 251.566177,267.624908 249.132751,263.850494 
z"/>
<path fill="#1E2343" opacity="1.000000" stroke="none" 
	d="
M107.780251,262.981201 
	C97.199577,267.333496 89.087555,265.664764 82.818138,258.055756 
	C90.666351,246.218811 105.836174,245.374985 117.699638,256.737183 
	C114.412270,258.839966 111.279900,260.843597 107.780251,262.981201 
z"/>
<path fill="#143753" opacity="1.000000" stroke="none" 
	d="
M424.025085,263.332794 
	C413.798340,267.999390 405.749969,263.930908 397.875336,258.316803 
	C406.508484,247.072800 423.886719,244.794632 432.843628,256.704376 
	C430.035889,258.835327 427.202118,260.985992 424.025085,263.332794 
z"/>
<path fill="#1C2544" opacity="1.000000" stroke="none" 
	d="
M174.470764,230.679306 
	C175.243240,234.420486 175.621689,238.224472 175.999237,242.478180 
	C161.639542,243.113281 147.601013,241.004837 133.422272,237.051849 
	C132.718475,235.979874 132.414154,234.895432 132.054321,233.476593 
	C146.295395,237.086426 160.223557,234.571487 174.470764,230.679306 
z"/>
<path fill="#242544" opacity="1.000000" stroke="none" 
	d="
M38.088440,257.981201 
	C38.587406,253.914337 41.872623,250.610916 46.109386,251.101715 
	C54.430416,252.065598 62.680611,253.640991 70.924980,255.860672 
	C63.141972,260.985504 54.746807,263.172180 46.008820,262.706848 
	C43.440212,262.570068 41.044601,259.184601 38.294212,257.643311 
	C38.018723,257.998566 38.088440,257.981201 38.088440,257.981201 
z"/>
<path fill="#133B56" opacity="1.000000" stroke="none" 
	d="
M445.691895,256.433960 
	C451.247559,254.755432 456.551117,253.471344 461.707672,251.747452 
	C468.451324,249.492966 472.701111,252.622299 476.236938,257.792297 
	C473.990387,262.208679 470.290283,263.849213 465.628082,262.950897 
	C458.991638,261.672089 452.408234,260.112915 445.828796,258.560760 
	C445.541718,258.493042 445.519836,257.301025 445.691895,256.433960 
z"/>
<path fill="#1D405B" opacity="1.000000" stroke="none" 
	d="
M439.556091,216.463867 
	C441.007568,218.474060 442.210419,220.224411 443.892670,222.672333 
	C432.673584,218.183945 422.287109,214.028687 412.232422,210.006134 
	C418.426849,205.549561 429.295166,207.833572 439.556091,216.463867 
z"/>
<path fill="#282C4A" opacity="1.000000" stroke="none" 
	d="
M96.491699,301.605164 
	C99.174347,302.346924 101.485008,302.941437 104.207062,303.641815 
	C95.681358,310.005829 73.664604,301.489288 72.202377,291.871826 
	C80.068031,295.024384 88.093872,298.241180 96.491699,301.605164 
z"/>
<path fill="#1D405B" opacity="1.000000" stroke="none" 
	d="
M418.802612,305.946045 
	C415.592834,305.688110 412.811798,305.391815 409.245728,305.011871 
	C419.980499,301.259155 429.856171,297.806793 440.394745,294.122681 
	C434.961090,301.743988 427.600555,304.703583 418.802612,305.946045 
z"/>
<path fill="#2F3351" opacity="1.000000" stroke="none" 
	d="
M75.844315,218.849899 
	C81.907234,209.855789 93.424973,206.012619 103.835602,209.177551 
	C95.191589,212.423004 86.147202,215.818771 76.614265,219.169769 
	C76.125717,219.125015 75.844315,218.849899 75.844315,218.849899 
z"/>
<path fill="#263854" opacity="1.000000" stroke="none" 
	d="
M266.593628,274.044067 
	C267.974060,267.435486 276.647797,265.031006 283.748138,269.684387 
	C277.869354,271.223328 272.422119,272.649261 266.593628,274.044067 
z"/>
<path fill="#263854" opacity="1.000000" stroke="none" 
	d="
M235.554352,243.371872 
	C239.481888,242.359894 243.039719,241.482224 247.306671,240.429611 
	C242.758255,248.261719 238.722031,249.278412 230.947571,244.842087 
	C232.653687,244.304169 233.919159,243.905182 235.554352,243.371872 
z"/>
<path fill="#263854" opacity="1.000000" stroke="none" 
	d="
M232.427979,269.328491 
	C239.516113,265.822388 239.781631,265.905792 246.168976,274.543457 
	C241.497009,272.892670 236.825043,271.241913 232.427979,269.328491 
z"/>
<path fill="#263854" opacity="1.000000" stroke="none" 
	d="
M280.536865,245.841934 
	C273.583038,249.642563 271.622070,242.478455 267.268341,240.890717 
	C267.397034,240.476074 267.525726,240.061417 267.654388,239.646759 
	C272.692169,241.006927 277.729919,242.367111 283.595215,243.950699 
	C282.137421,244.890869 281.512207,245.294052 280.536865,245.841934 
z"/>
<path fill="#2F3351" opacity="1.000000" stroke="none" 
	d="
M32.854961,259.045959 
	C34.285622,258.742523 35.755817,258.460175 37.657227,258.079498 
	C38.088440,257.981201 38.018723,257.998566 38.038811,257.968536 
	C38.853451,259.503601 39.648006,261.068665 40.742195,263.223969 
	C38.080086,261.768768 33.505047,265.333099 33.284462,259.156616 
	C32.831745,259.029358 32.894497,259.067017 32.854961,259.045959 
z"/>
<path fill="#1D405B" opacity="1.000000" stroke="none" 
	d="
M480.733643,253.809143 
	C476.013062,259.047852 476.214172,252.570679 474.020996,251.961792 
	C474.262695,251.411179 474.504425,250.860580 474.746124,250.309982 
	C476.825073,251.388321 478.904022,252.466660 480.733643,253.809143 
z"/>
<path fill="#182645" opacity="1.000000" stroke="none" 
	d="
M246.634674,286.424988 
	C247.023407,285.713745 247.633530,285.305847 248.243652,284.897949 
	C248.437790,285.052979 248.631927,285.208038 248.826065,285.363068 
	C248.495560,285.909912 248.165054,286.456726 247.577728,287.160858 
	C247.165970,287.121582 247.011002,286.924957 246.634674,286.424988 
z"/>
<path fill="#1A2141" opacity="1.000000" stroke="none" 
	d="
M112.980560,104.397552 
	C112.780663,104.841927 112.300667,104.989044 111.812859,105.022606 
	C111.702827,105.030174 111.565590,104.642021 111.440872,104.436035 
	C111.859787,104.310425 112.278709,104.184822 112.980560,104.397552 
z"/>
<path fill="#17304D" opacity="1.000000" stroke="none" 
	d="
M264.044495,284.939392 
	C263.680664,284.855530 263.481812,284.595215 263.282928,284.334900 
	C263.534668,284.271332 263.786407,284.207764 264.272278,284.263092 
	C264.506409,284.382019 264.209473,284.763000 264.044495,284.939392 
z"/>
<path fill="#2F3351" opacity="1.000000" stroke="none" 
	d="
M76.265129,219.263855 
	C76.051613,219.530609 75.698685,219.658508 75.345764,219.786407 
	C75.342499,219.541092 75.339241,219.295761 75.590149,218.950165 
	C75.844315,218.849899 76.125717,219.125015 76.265129,219.263855 
z"/>
<path fill="#1B2B49" opacity="1.000000" stroke="none" 
	d="
M249.485474,227.678070 
	C249.495178,227.913681 249.257477,228.311661 248.901596,228.464508 
	C248.934967,228.093063 249.086517,227.966751 249.485474,227.678070 
z"/>
<path fill="#F9F9FA" opacity="1.000000" stroke="none" 
	d="
M383.366455,225.470795 
	C382.654724,225.520401 381.943024,225.570007 381.231293,225.619629 
	C381.543884,225.365295 381.856476,225.110947 382.631287,224.996292 
	C383.093536,225.135971 383.366455,225.470795 383.366455,225.470795 
z"/>
<path fill="#F9F9FA" opacity="1.000000" stroke="none" 
	d="
M382.953308,224.971680 
	C383.092377,224.403519 383.371643,223.999649 383.870483,223.466446 
	C384.262726,223.452057 384.435364,223.567017 384.844360,223.884247 
	C384.689972,224.479004 384.299194,224.871460 383.637451,225.367355 
	C383.366455,225.470795 383.093536,225.135971 382.953308,224.971680 
z"/>
<path fill="#133652" opacity="1.000000" stroke="none" 
	d="
M380.957306,290.065887 
	C380.518768,289.685181 380.080200,289.304474 379.641663,288.923767 
	C379.802673,288.765533 379.963715,288.607330 380.124725,288.449097 
	C380.407959,288.790161 380.691193,289.131195 380.992798,289.738190 
	C381.011169,290.004120 380.957306,290.065887 380.957306,290.065887 
z"/>
<path fill="#133652" opacity="1.000000" stroke="none" 
	d="
M381.042603,289.977844 
	C381.074066,289.951569 381.381836,290.233673 381.381836,290.233673 
	C381.381836,290.233673 381.080566,290.247131 381.018921,290.156494 
	C380.957306,290.065887 381.011169,290.004120 381.042603,289.977844 
z"/>
<path fill="#F9F9FA" opacity="1.000000" stroke="none" 
	d="
M117.218811,215.783478 
	C117.439362,216.352371 117.538589,217.039536 117.637833,217.726685 
	C117.387047,217.411591 117.136261,217.096497 116.867889,216.457428 
	C116.850304,216.133453 117.097488,215.901718 117.218811,215.783478 
z"/>
</svg>